<svg xmlns="http://www.w3.org/2000/svg" width="1200" height="800" viewBox="0 0 1200 800" role="img" aria-labelledby="title desc">
  <title id="title">Дом на Курганской, 5</title>
  <desc id="desc">Минималистичная иллюстрация современного двухэтажного дома для карточки объекта.</desc>
  <defs>
    <linearGradient id="sky" x1="0" y1="0" x2="0" y2="1">
      <stop offset="0" stop-color="#dbeafe"/>
      <stop offset="1" stop-color="#f8fafc"/>
    </linearGradient>
    <linearGradient id="accent" x1="0" y1="0" x2="1" y2="1">
      <stop offset="0" stop-color="#183b63"/>
      <stop offset="1" stop-color="#2563eb"/>
    </linearGradient>
  </defs>
  <rect width="1200" height="800" fill="url(#sky)"/>
  <circle cx="1010" cy="140" r="72" fill="#fde68a" opacity="0.85"/>
  <path d="M0 636 C170 585 312 615 470 570 C665 514 836 584 1200 520 L1200 800 L0 800 Z" fill="#d9f99d"/>
  <path d="M0 690 C240 625 440 705 650 650 C815 606 990 638 1200 590 L1200 800 L0 800 Z" fill="#86efac" opacity="0.55"/>
  <g transform="translate(210 230)">
    <path d="M90 250 L390 72 L690 250 Z" fill="url(#accent)"/>
    <path d="M145 250 H635 V520 H145 Z" fill="#f8fafc"/>
    <path d="M145 250 H635 V305 H145 Z" fill="#e2e8f0"/>
    <rect x="215" y="330" width="120" height="115" fill="#bfdbfe" stroke="#183b63" stroke-width="10"/>
    <rect x="445" y="330" width="120" height="115" fill="#bfdbfe" stroke="#183b63" stroke-width="10"/>
    <rect x="355" y="375" width="78" height="145" fill="#183b63"/>
    <circle cx="414" cy="448" r="6" fill="#f8fafc"/>
    <rect x="108" y="520" width="565" height="28" fill="#94a3b8"/>
    <path d="M55 548 H720 L770 625 H5 Z" fill="#475569" opacity="0.18"/>
  </g>
  <g fill="#183b63" font-family="Georgia, 'Times New Roman', serif" text-anchor="middle">
    <text x="600" y="710" font-size="46">Дом на Курганской, 5</text>
    <text x="600" y="754" font-size="26" opacity="0.75">150 м² • 2 этажа • Медеуский район</text>
  </g>
</svg>
